%TF.GenerationSoftware,KiCad,Pcbnew,8.0.9*%
%TF.CreationDate,2026-09-19T11:01:28+00:00*%
%TF.ProjectId,board_freerouted,626f6172-645f-4667-9265-65726f757465,rev?*%
%TF.SameCoordinates,Original*%
%TF.FileFunction,Legend,Top*%
%TF.FilePolarity,Positive*%
%FSLAX46Y46*%
G04 Gerber Fmt 4.6, Leading zero omitted, Abs format (unit mm)*
G04 Created by KiCad (PCBNEW 8.0.9) date 2026-09-19 11:01:28*
%MOMM*%
%LPD*%
G01*
G04 APERTURE LIST*
%ADD10C,0.150000*%
%ADD11C,0.120000*%
G04 APERTURE END LIST*
D10*
X38558333Y-39024819D02*
X38225000Y-38548628D01*
X37986905Y-39024819D02*
X37986905Y-38024819D01*
X37986905Y-38024819D02*
X38367857Y-38024819D01*
X38367857Y-38024819D02*
X38463095Y-38072438D01*
X38463095Y-38072438D02*
X38510714Y-38120057D01*
X38510714Y-38120057D02*
X38558333Y-38215295D01*
X38558333Y-38215295D02*
X38558333Y-38358152D01*
X38558333Y-38358152D02*
X38510714Y-38453390D01*
X38510714Y-38453390D02*
X38463095Y-38501009D01*
X38463095Y-38501009D02*
X38367857Y-38548628D01*
X38367857Y-38548628D02*
X37986905Y-38548628D01*
X38891667Y-38024819D02*
X39510714Y-38024819D01*
X39510714Y-38024819D02*
X39177381Y-38405771D01*
X39177381Y-38405771D02*
X39320238Y-38405771D01*
X39320238Y-38405771D02*
X39415476Y-38453390D01*
X39415476Y-38453390D02*
X39463095Y-38501009D01*
X39463095Y-38501009D02*
X39510714Y-38596247D01*
X39510714Y-38596247D02*
X39510714Y-38834342D01*
X39510714Y-38834342D02*
X39463095Y-38929580D01*
X39463095Y-38929580D02*
X39415476Y-38977200D01*
X39415476Y-38977200D02*
X39320238Y-39024819D01*
X39320238Y-39024819D02*
X39034524Y-39024819D01*
X39034524Y-39024819D02*
X38939286Y-38977200D01*
X38939286Y-38977200D02*
X38891667Y-38929580D01*
X9534580Y-22166666D02*
X9582200Y-22214285D01*
X9582200Y-22214285D02*
X9629819Y-22357142D01*
X9629819Y-22357142D02*
X9629819Y-22452380D01*
X9629819Y-22452380D02*
X9582200Y-22595237D01*
X9582200Y-22595237D02*
X9486961Y-22690475D01*
X9486961Y-22690475D02*
X9391723Y-22738094D01*
X9391723Y-22738094D02*
X9201247Y-22785713D01*
X9201247Y-22785713D02*
X9058390Y-22785713D01*
X9058390Y-22785713D02*
X8867914Y-22738094D01*
X8867914Y-22738094D02*
X8772676Y-22690475D01*
X8772676Y-22690475D02*
X8677438Y-22595237D01*
X8677438Y-22595237D02*
X8629819Y-22452380D01*
X8629819Y-22452380D02*
X8629819Y-22357142D01*
X8629819Y-22357142D02*
X8677438Y-22214285D01*
X8677438Y-22214285D02*
X8725057Y-22166666D01*
X8725057Y-21785713D02*
X8677438Y-21738094D01*
X8677438Y-21738094D02*
X8629819Y-21642856D01*
X8629819Y-21642856D02*
X8629819Y-21404761D01*
X8629819Y-21404761D02*
X8677438Y-21309523D01*
X8677438Y-21309523D02*
X8725057Y-21261904D01*
X8725057Y-21261904D02*
X8820295Y-21214285D01*
X8820295Y-21214285D02*
X8915533Y-21214285D01*
X8915533Y-21214285D02*
X9058390Y-21261904D01*
X9058390Y-21261904D02*
X9629819Y-21833332D01*
X9629819Y-21833332D02*
X9629819Y-21214285D01*
X30359761Y-4794819D02*
X30026428Y-4318628D01*
X29788333Y-4794819D02*
X29788333Y-3794819D01*
X29788333Y-3794819D02*
X30169285Y-3794819D01*
X30169285Y-3794819D02*
X30264523Y-3842438D01*
X30264523Y-3842438D02*
X30312142Y-3890057D01*
X30312142Y-3890057D02*
X30359761Y-3985295D01*
X30359761Y-3985295D02*
X30359761Y-4128152D01*
X30359761Y-4128152D02*
X30312142Y-4223390D01*
X30312142Y-4223390D02*
X30264523Y-4271009D01*
X30264523Y-4271009D02*
X30169285Y-4318628D01*
X30169285Y-4318628D02*
X29788333Y-4318628D01*
X30645476Y-3794819D02*
X30978809Y-4794819D01*
X30978809Y-4794819D02*
X31312142Y-3794819D01*
X32169285Y-4794819D02*
X31597857Y-4794819D01*
X31883571Y-4794819D02*
X31883571Y-3794819D01*
X31883571Y-3794819D02*
X31788333Y-3937676D01*
X31788333Y-3937676D02*
X31693095Y-4032914D01*
X31693095Y-4032914D02*
X31597857Y-4080533D01*
X22939819Y-24166666D02*
X22463628Y-24499999D01*
X22939819Y-24738094D02*
X21939819Y-24738094D01*
X21939819Y-24738094D02*
X21939819Y-24357142D01*
X21939819Y-24357142D02*
X21987438Y-24261904D01*
X21987438Y-24261904D02*
X22035057Y-24214285D01*
X22035057Y-24214285D02*
X22130295Y-24166666D01*
X22130295Y-24166666D02*
X22273152Y-24166666D01*
X22273152Y-24166666D02*
X22368390Y-24214285D01*
X22368390Y-24214285D02*
X22416009Y-24261904D01*
X22416009Y-24261904D02*
X22463628Y-24357142D01*
X22463628Y-24357142D02*
X22463628Y-24738094D01*
X22368390Y-23595237D02*
X22320771Y-23690475D01*
X22320771Y-23690475D02*
X22273152Y-23738094D01*
X22273152Y-23738094D02*
X22177914Y-23785713D01*
X22177914Y-23785713D02*
X22130295Y-23785713D01*
X22130295Y-23785713D02*
X22035057Y-23738094D01*
X22035057Y-23738094D02*
X21987438Y-23690475D01*
X21987438Y-23690475D02*
X21939819Y-23595237D01*
X21939819Y-23595237D02*
X21939819Y-23404761D01*
X21939819Y-23404761D02*
X21987438Y-23309523D01*
X21987438Y-23309523D02*
X22035057Y-23261904D01*
X22035057Y-23261904D02*
X22130295Y-23214285D01*
X22130295Y-23214285D02*
X22177914Y-23214285D01*
X22177914Y-23214285D02*
X22273152Y-23261904D01*
X22273152Y-23261904D02*
X22320771Y-23309523D01*
X22320771Y-23309523D02*
X22368390Y-23404761D01*
X22368390Y-23404761D02*
X22368390Y-23595237D01*
X22368390Y-23595237D02*
X22416009Y-23690475D01*
X22416009Y-23690475D02*
X22463628Y-23738094D01*
X22463628Y-23738094D02*
X22558866Y-23785713D01*
X22558866Y-23785713D02*
X22749342Y-23785713D01*
X22749342Y-23785713D02*
X22844580Y-23738094D01*
X22844580Y-23738094D02*
X22892200Y-23690475D01*
X22892200Y-23690475D02*
X22939819Y-23595237D01*
X22939819Y-23595237D02*
X22939819Y-23404761D01*
X22939819Y-23404761D02*
X22892200Y-23309523D01*
X22892200Y-23309523D02*
X22844580Y-23261904D01*
X22844580Y-23261904D02*
X22749342Y-23214285D01*
X22749342Y-23214285D02*
X22558866Y-23214285D01*
X22558866Y-23214285D02*
X22463628Y-23261904D01*
X22463628Y-23261904D02*
X22416009Y-23309523D01*
X22416009Y-23309523D02*
X22368390Y-23404761D01*
X4779819Y-28761904D02*
X5589342Y-28761904D01*
X5589342Y-28761904D02*
X5684580Y-28714285D01*
X5684580Y-28714285D02*
X5732200Y-28666666D01*
X5732200Y-28666666D02*
X5779819Y-28571428D01*
X5779819Y-28571428D02*
X5779819Y-28380952D01*
X5779819Y-28380952D02*
X5732200Y-28285714D01*
X5732200Y-28285714D02*
X5684580Y-28238095D01*
X5684580Y-28238095D02*
X5589342Y-28190476D01*
X5589342Y-28190476D02*
X4779819Y-28190476D01*
X4875057Y-27761904D02*
X4827438Y-27714285D01*
X4827438Y-27714285D02*
X4779819Y-27619047D01*
X4779819Y-27619047D02*
X4779819Y-27380952D01*
X4779819Y-27380952D02*
X4827438Y-27285714D01*
X4827438Y-27285714D02*
X4875057Y-27238095D01*
X4875057Y-27238095D02*
X4970295Y-27190476D01*
X4970295Y-27190476D02*
X5065533Y-27190476D01*
X5065533Y-27190476D02*
X5208390Y-27238095D01*
X5208390Y-27238095D02*
X5779819Y-27809523D01*
X5779819Y-27809523D02*
X5779819Y-27190476D01*
X2929580Y-12166666D02*
X2977200Y-12214285D01*
X2977200Y-12214285D02*
X3024819Y-12357142D01*
X3024819Y-12357142D02*
X3024819Y-12452380D01*
X3024819Y-12452380D02*
X2977200Y-12595237D01*
X2977200Y-12595237D02*
X2881961Y-12690475D01*
X2881961Y-12690475D02*
X2786723Y-12738094D01*
X2786723Y-12738094D02*
X2596247Y-12785713D01*
X2596247Y-12785713D02*
X2453390Y-12785713D01*
X2453390Y-12785713D02*
X2262914Y-12738094D01*
X2262914Y-12738094D02*
X2167676Y-12690475D01*
X2167676Y-12690475D02*
X2072438Y-12595237D01*
X2072438Y-12595237D02*
X2024819Y-12452380D01*
X2024819Y-12452380D02*
X2024819Y-12357142D01*
X2024819Y-12357142D02*
X2072438Y-12214285D01*
X2072438Y-12214285D02*
X2120057Y-12166666D01*
X2024819Y-11309523D02*
X2024819Y-11499999D01*
X2024819Y-11499999D02*
X2072438Y-11595237D01*
X2072438Y-11595237D02*
X2120057Y-11642856D01*
X2120057Y-11642856D02*
X2262914Y-11738094D01*
X2262914Y-11738094D02*
X2453390Y-11785713D01*
X2453390Y-11785713D02*
X2834342Y-11785713D01*
X2834342Y-11785713D02*
X2929580Y-11738094D01*
X2929580Y-11738094D02*
X2977200Y-11690475D01*
X2977200Y-11690475D02*
X3024819Y-11595237D01*
X3024819Y-11595237D02*
X3024819Y-11404761D01*
X3024819Y-11404761D02*
X2977200Y-11309523D01*
X2977200Y-11309523D02*
X2929580Y-11261904D01*
X2929580Y-11261904D02*
X2834342Y-11214285D01*
X2834342Y-11214285D02*
X2596247Y-11214285D01*
X2596247Y-11214285D02*
X2501009Y-11261904D01*
X2501009Y-11261904D02*
X2453390Y-11309523D01*
X2453390Y-11309523D02*
X2405771Y-11404761D01*
X2405771Y-11404761D02*
X2405771Y-11595237D01*
X2405771Y-11595237D02*
X2453390Y-11690475D01*
X2453390Y-11690475D02*
X2501009Y-11738094D01*
X2501009Y-11738094D02*
X2596247Y-11785713D01*
X38558333Y-46024819D02*
X38225000Y-45548628D01*
X37986905Y-46024819D02*
X37986905Y-45024819D01*
X37986905Y-45024819D02*
X38367857Y-45024819D01*
X38367857Y-45024819D02*
X38463095Y-45072438D01*
X38463095Y-45072438D02*
X38510714Y-45120057D01*
X38510714Y-45120057D02*
X38558333Y-45215295D01*
X38558333Y-45215295D02*
X38558333Y-45358152D01*
X38558333Y-45358152D02*
X38510714Y-45453390D01*
X38510714Y-45453390D02*
X38463095Y-45501009D01*
X38463095Y-45501009D02*
X38367857Y-45548628D01*
X38367857Y-45548628D02*
X37986905Y-45548628D01*
X39415476Y-45358152D02*
X39415476Y-46024819D01*
X39177381Y-44977200D02*
X38939286Y-45691485D01*
X38939286Y-45691485D02*
X39558333Y-45691485D01*
X15189819Y-14761904D02*
X15999342Y-14761904D01*
X15999342Y-14761904D02*
X16094580Y-14714285D01*
X16094580Y-14714285D02*
X16142200Y-14666666D01*
X16142200Y-14666666D02*
X16189819Y-14571428D01*
X16189819Y-14571428D02*
X16189819Y-14380952D01*
X16189819Y-14380952D02*
X16142200Y-14285714D01*
X16142200Y-14285714D02*
X16094580Y-14238095D01*
X16094580Y-14238095D02*
X15999342Y-14190476D01*
X15999342Y-14190476D02*
X15189819Y-14190476D01*
X15523152Y-13285714D02*
X16189819Y-13285714D01*
X15142200Y-13523809D02*
X15856485Y-13761904D01*
X15856485Y-13761904D02*
X15856485Y-13142857D01*
X30359761Y-20794819D02*
X30026428Y-20318628D01*
X29788333Y-20794819D02*
X29788333Y-19794819D01*
X29788333Y-19794819D02*
X30169285Y-19794819D01*
X30169285Y-19794819D02*
X30264523Y-19842438D01*
X30264523Y-19842438D02*
X30312142Y-19890057D01*
X30312142Y-19890057D02*
X30359761Y-19985295D01*
X30359761Y-19985295D02*
X30359761Y-20128152D01*
X30359761Y-20128152D02*
X30312142Y-20223390D01*
X30312142Y-20223390D02*
X30264523Y-20271009D01*
X30264523Y-20271009D02*
X30169285Y-20318628D01*
X30169285Y-20318628D02*
X29788333Y-20318628D01*
X30645476Y-19794819D02*
X30978809Y-20794819D01*
X30978809Y-20794819D02*
X31312142Y-19794819D01*
X31597857Y-19890057D02*
X31645476Y-19842438D01*
X31645476Y-19842438D02*
X31740714Y-19794819D01*
X31740714Y-19794819D02*
X31978809Y-19794819D01*
X31978809Y-19794819D02*
X32074047Y-19842438D01*
X32074047Y-19842438D02*
X32121666Y-19890057D01*
X32121666Y-19890057D02*
X32169285Y-19985295D01*
X32169285Y-19985295D02*
X32169285Y-20080533D01*
X32169285Y-20080533D02*
X32121666Y-20223390D01*
X32121666Y-20223390D02*
X31550238Y-20794819D01*
X31550238Y-20794819D02*
X32169285Y-20794819D01*
X42292142Y-53024819D02*
X41958809Y-52548628D01*
X41720714Y-53024819D02*
X41720714Y-52024819D01*
X41720714Y-52024819D02*
X42101666Y-52024819D01*
X42101666Y-52024819D02*
X42196904Y-52072438D01*
X42196904Y-52072438D02*
X42244523Y-52120057D01*
X42244523Y-52120057D02*
X42292142Y-52215295D01*
X42292142Y-52215295D02*
X42292142Y-52358152D01*
X42292142Y-52358152D02*
X42244523Y-52453390D01*
X42244523Y-52453390D02*
X42196904Y-52501009D01*
X42196904Y-52501009D02*
X42101666Y-52548628D01*
X42101666Y-52548628D02*
X41720714Y-52548628D01*
X43244523Y-53024819D02*
X42673095Y-53024819D01*
X42958809Y-53024819D02*
X42958809Y-52024819D01*
X42958809Y-52024819D02*
X42863571Y-52167676D01*
X42863571Y-52167676D02*
X42768333Y-52262914D01*
X42768333Y-52262914D02*
X42673095Y-52310533D01*
X44101666Y-52358152D02*
X44101666Y-53024819D01*
X43863571Y-51977200D02*
X43625476Y-52691485D01*
X43625476Y-52691485D02*
X44244523Y-52691485D01*
X22939819Y-8166666D02*
X22463628Y-8499999D01*
X22939819Y-8738094D02*
X21939819Y-8738094D01*
X21939819Y-8738094D02*
X21939819Y-8357142D01*
X21939819Y-8357142D02*
X21987438Y-8261904D01*
X21987438Y-8261904D02*
X22035057Y-8214285D01*
X22035057Y-8214285D02*
X22130295Y-8166666D01*
X22130295Y-8166666D02*
X22273152Y-8166666D01*
X22273152Y-8166666D02*
X22368390Y-8214285D01*
X22368390Y-8214285D02*
X22416009Y-8261904D01*
X22416009Y-8261904D02*
X22463628Y-8357142D01*
X22463628Y-8357142D02*
X22463628Y-8738094D01*
X21939819Y-7309523D02*
X21939819Y-7499999D01*
X21939819Y-7499999D02*
X21987438Y-7595237D01*
X21987438Y-7595237D02*
X22035057Y-7642856D01*
X22035057Y-7642856D02*
X22177914Y-7738094D01*
X22177914Y-7738094D02*
X22368390Y-7785713D01*
X22368390Y-7785713D02*
X22749342Y-7785713D01*
X22749342Y-7785713D02*
X22844580Y-7738094D01*
X22844580Y-7738094D02*
X22892200Y-7690475D01*
X22892200Y-7690475D02*
X22939819Y-7595237D01*
X22939819Y-7595237D02*
X22939819Y-7404761D01*
X22939819Y-7404761D02*
X22892200Y-7309523D01*
X22892200Y-7309523D02*
X22844580Y-7261904D01*
X22844580Y-7261904D02*
X22749342Y-7214285D01*
X22749342Y-7214285D02*
X22511247Y-7214285D01*
X22511247Y-7214285D02*
X22416009Y-7261904D01*
X22416009Y-7261904D02*
X22368390Y-7309523D01*
X22368390Y-7309523D02*
X22320771Y-7404761D01*
X22320771Y-7404761D02*
X22320771Y-7595237D01*
X22320771Y-7595237D02*
X22368390Y-7690475D01*
X22368390Y-7690475D02*
X22416009Y-7738094D01*
X22416009Y-7738094D02*
X22511247Y-7785713D01*
X30359761Y-36794819D02*
X30026428Y-36318628D01*
X29788333Y-36794819D02*
X29788333Y-35794819D01*
X29788333Y-35794819D02*
X30169285Y-35794819D01*
X30169285Y-35794819D02*
X30264523Y-35842438D01*
X30264523Y-35842438D02*
X30312142Y-35890057D01*
X30312142Y-35890057D02*
X30359761Y-35985295D01*
X30359761Y-35985295D02*
X30359761Y-36128152D01*
X30359761Y-36128152D02*
X30312142Y-36223390D01*
X30312142Y-36223390D02*
X30264523Y-36271009D01*
X30264523Y-36271009D02*
X30169285Y-36318628D01*
X30169285Y-36318628D02*
X29788333Y-36318628D01*
X30645476Y-35794819D02*
X30978809Y-36794819D01*
X30978809Y-36794819D02*
X31312142Y-35794819D01*
X31550238Y-35794819D02*
X32169285Y-35794819D01*
X32169285Y-35794819D02*
X31835952Y-36175771D01*
X31835952Y-36175771D02*
X31978809Y-36175771D01*
X31978809Y-36175771D02*
X32074047Y-36223390D01*
X32074047Y-36223390D02*
X32121666Y-36271009D01*
X32121666Y-36271009D02*
X32169285Y-36366247D01*
X32169285Y-36366247D02*
X32169285Y-36604342D01*
X32169285Y-36604342D02*
X32121666Y-36699580D01*
X32121666Y-36699580D02*
X32074047Y-36747200D01*
X32074047Y-36747200D02*
X31978809Y-36794819D01*
X31978809Y-36794819D02*
X31693095Y-36794819D01*
X31693095Y-36794819D02*
X31597857Y-36747200D01*
X31597857Y-36747200D02*
X31550238Y-36699580D01*
X15189819Y-34761904D02*
X15999342Y-34761904D01*
X15999342Y-34761904D02*
X16094580Y-34714285D01*
X16094580Y-34714285D02*
X16142200Y-34666666D01*
X16142200Y-34666666D02*
X16189819Y-34571428D01*
X16189819Y-34571428D02*
X16189819Y-34380952D01*
X16189819Y-34380952D02*
X16142200Y-34285714D01*
X16142200Y-34285714D02*
X16094580Y-34238095D01*
X16094580Y-34238095D02*
X15999342Y-34190476D01*
X15999342Y-34190476D02*
X15189819Y-34190476D01*
X15189819Y-33238095D02*
X15189819Y-33714285D01*
X15189819Y-33714285D02*
X15666009Y-33761904D01*
X15666009Y-33761904D02*
X15618390Y-33714285D01*
X15618390Y-33714285D02*
X15570771Y-33619047D01*
X15570771Y-33619047D02*
X15570771Y-33380952D01*
X15570771Y-33380952D02*
X15618390Y-33285714D01*
X15618390Y-33285714D02*
X15666009Y-33238095D01*
X15666009Y-33238095D02*
X15761247Y-33190476D01*
X15761247Y-33190476D02*
X15999342Y-33190476D01*
X15999342Y-33190476D02*
X16094580Y-33238095D01*
X16094580Y-33238095D02*
X16142200Y-33285714D01*
X16142200Y-33285714D02*
X16189819Y-33380952D01*
X16189819Y-33380952D02*
X16189819Y-33619047D01*
X16189819Y-33619047D02*
X16142200Y-33714285D01*
X16142200Y-33714285D02*
X16094580Y-33761904D01*
X38558333Y-23024819D02*
X38225000Y-22548628D01*
X37986905Y-23024819D02*
X37986905Y-22024819D01*
X37986905Y-22024819D02*
X38367857Y-22024819D01*
X38367857Y-22024819D02*
X38463095Y-22072438D01*
X38463095Y-22072438D02*
X38510714Y-22120057D01*
X38510714Y-22120057D02*
X38558333Y-22215295D01*
X38558333Y-22215295D02*
X38558333Y-22358152D01*
X38558333Y-22358152D02*
X38510714Y-22453390D01*
X38510714Y-22453390D02*
X38463095Y-22501009D01*
X38463095Y-22501009D02*
X38367857Y-22548628D01*
X38367857Y-22548628D02*
X37986905Y-22548628D01*
X38939286Y-22120057D02*
X38986905Y-22072438D01*
X38986905Y-22072438D02*
X39082143Y-22024819D01*
X39082143Y-22024819D02*
X39320238Y-22024819D01*
X39320238Y-22024819D02*
X39415476Y-22072438D01*
X39415476Y-22072438D02*
X39463095Y-22120057D01*
X39463095Y-22120057D02*
X39510714Y-22215295D01*
X39510714Y-22215295D02*
X39510714Y-22310533D01*
X39510714Y-22310533D02*
X39463095Y-22453390D01*
X39463095Y-22453390D02*
X38891667Y-23024819D01*
X38891667Y-23024819D02*
X39510714Y-23024819D01*
X18114580Y-8166666D02*
X18162200Y-8214285D01*
X18162200Y-8214285D02*
X18209819Y-8357142D01*
X18209819Y-8357142D02*
X18209819Y-8452380D01*
X18209819Y-8452380D02*
X18162200Y-8595237D01*
X18162200Y-8595237D02*
X18066961Y-8690475D01*
X18066961Y-8690475D02*
X17971723Y-8738094D01*
X17971723Y-8738094D02*
X17781247Y-8785713D01*
X17781247Y-8785713D02*
X17638390Y-8785713D01*
X17638390Y-8785713D02*
X17447914Y-8738094D01*
X17447914Y-8738094D02*
X17352676Y-8690475D01*
X17352676Y-8690475D02*
X17257438Y-8595237D01*
X17257438Y-8595237D02*
X17209819Y-8452380D01*
X17209819Y-8452380D02*
X17209819Y-8357142D01*
X17209819Y-8357142D02*
X17257438Y-8214285D01*
X17257438Y-8214285D02*
X17305057Y-8166666D01*
X17543152Y-7309523D02*
X18209819Y-7309523D01*
X17162200Y-7547618D02*
X17876485Y-7785713D01*
X17876485Y-7785713D02*
X17876485Y-7166666D01*
X42292142Y-7024819D02*
X41958809Y-6548628D01*
X41720714Y-7024819D02*
X41720714Y-6024819D01*
X41720714Y-6024819D02*
X42101666Y-6024819D01*
X42101666Y-6024819D02*
X42196904Y-6072438D01*
X42196904Y-6072438D02*
X42244523Y-6120057D01*
X42244523Y-6120057D02*
X42292142Y-6215295D01*
X42292142Y-6215295D02*
X42292142Y-6358152D01*
X42292142Y-6358152D02*
X42244523Y-6453390D01*
X42244523Y-6453390D02*
X42196904Y-6501009D01*
X42196904Y-6501009D02*
X42101666Y-6548628D01*
X42101666Y-6548628D02*
X41720714Y-6548628D01*
X43244523Y-7024819D02*
X42673095Y-7024819D01*
X42958809Y-7024819D02*
X42958809Y-6024819D01*
X42958809Y-6024819D02*
X42863571Y-6167676D01*
X42863571Y-6167676D02*
X42768333Y-6262914D01*
X42768333Y-6262914D02*
X42673095Y-6310533D01*
X44101666Y-6024819D02*
X43911190Y-6024819D01*
X43911190Y-6024819D02*
X43815952Y-6072438D01*
X43815952Y-6072438D02*
X43768333Y-6120057D01*
X43768333Y-6120057D02*
X43673095Y-6262914D01*
X43673095Y-6262914D02*
X43625476Y-6453390D01*
X43625476Y-6453390D02*
X43625476Y-6834342D01*
X43625476Y-6834342D02*
X43673095Y-6929580D01*
X43673095Y-6929580D02*
X43720714Y-6977200D01*
X43720714Y-6977200D02*
X43815952Y-7024819D01*
X43815952Y-7024819D02*
X44006428Y-7024819D01*
X44006428Y-7024819D02*
X44101666Y-6977200D01*
X44101666Y-6977200D02*
X44149285Y-6929580D01*
X44149285Y-6929580D02*
X44196904Y-6834342D01*
X44196904Y-6834342D02*
X44196904Y-6596247D01*
X44196904Y-6596247D02*
X44149285Y-6501009D01*
X44149285Y-6501009D02*
X44101666Y-6453390D01*
X44101666Y-6453390D02*
X44006428Y-6405771D01*
X44006428Y-6405771D02*
X43815952Y-6405771D01*
X43815952Y-6405771D02*
X43720714Y-6453390D01*
X43720714Y-6453390D02*
X43673095Y-6501009D01*
X43673095Y-6501009D02*
X43625476Y-6596247D01*
X42292142Y-39024819D02*
X41958809Y-38548628D01*
X41720714Y-39024819D02*
X41720714Y-38024819D01*
X41720714Y-38024819D02*
X42101666Y-38024819D01*
X42101666Y-38024819D02*
X42196904Y-38072438D01*
X42196904Y-38072438D02*
X42244523Y-38120057D01*
X42244523Y-38120057D02*
X42292142Y-38215295D01*
X42292142Y-38215295D02*
X42292142Y-38358152D01*
X42292142Y-38358152D02*
X42244523Y-38453390D01*
X42244523Y-38453390D02*
X42196904Y-38501009D01*
X42196904Y-38501009D02*
X42101666Y-38548628D01*
X42101666Y-38548628D02*
X41720714Y-38548628D01*
X43244523Y-39024819D02*
X42673095Y-39024819D01*
X42958809Y-39024819D02*
X42958809Y-38024819D01*
X42958809Y-38024819D02*
X42863571Y-38167676D01*
X42863571Y-38167676D02*
X42768333Y-38262914D01*
X42768333Y-38262914D02*
X42673095Y-38310533D01*
X43625476Y-38120057D02*
X43673095Y-38072438D01*
X43673095Y-38072438D02*
X43768333Y-38024819D01*
X43768333Y-38024819D02*
X44006428Y-38024819D01*
X44006428Y-38024819D02*
X44101666Y-38072438D01*
X44101666Y-38072438D02*
X44149285Y-38120057D01*
X44149285Y-38120057D02*
X44196904Y-38215295D01*
X44196904Y-38215295D02*
X44196904Y-38310533D01*
X44196904Y-38310533D02*
X44149285Y-38453390D01*
X44149285Y-38453390D02*
X43577857Y-39024819D01*
X43577857Y-39024819D02*
X44196904Y-39024819D01*
X30359761Y-28794819D02*
X30026428Y-28318628D01*
X29788333Y-28794819D02*
X29788333Y-27794819D01*
X29788333Y-27794819D02*
X30169285Y-27794819D01*
X30169285Y-27794819D02*
X30264523Y-27842438D01*
X30264523Y-27842438D02*
X30312142Y-27890057D01*
X30312142Y-27890057D02*
X30359761Y-27985295D01*
X30359761Y-27985295D02*
X30359761Y-28128152D01*
X30359761Y-28128152D02*
X30312142Y-28223390D01*
X30312142Y-28223390D02*
X30264523Y-28271009D01*
X30264523Y-28271009D02*
X30169285Y-28318628D01*
X30169285Y-28318628D02*
X29788333Y-28318628D01*
X30645476Y-27794819D02*
X30978809Y-28794819D01*
X30978809Y-28794819D02*
X31312142Y-27794819D01*
X32074047Y-27794819D02*
X31883571Y-27794819D01*
X31883571Y-27794819D02*
X31788333Y-27842438D01*
X31788333Y-27842438D02*
X31740714Y-27890057D01*
X31740714Y-27890057D02*
X31645476Y-28032914D01*
X31645476Y-28032914D02*
X31597857Y-28223390D01*
X31597857Y-28223390D02*
X31597857Y-28604342D01*
X31597857Y-28604342D02*
X31645476Y-28699580D01*
X31645476Y-28699580D02*
X31693095Y-28747200D01*
X31693095Y-28747200D02*
X31788333Y-28794819D01*
X31788333Y-28794819D02*
X31978809Y-28794819D01*
X31978809Y-28794819D02*
X32074047Y-28747200D01*
X32074047Y-28747200D02*
X32121666Y-28699580D01*
X32121666Y-28699580D02*
X32169285Y-28604342D01*
X32169285Y-28604342D02*
X32169285Y-28366247D01*
X32169285Y-28366247D02*
X32121666Y-28271009D01*
X32121666Y-28271009D02*
X32074047Y-28223390D01*
X32074047Y-28223390D02*
X31978809Y-28175771D01*
X31978809Y-28175771D02*
X31788333Y-28175771D01*
X31788333Y-28175771D02*
X31693095Y-28223390D01*
X31693095Y-28223390D02*
X31645476Y-28271009D01*
X31645476Y-28271009D02*
X31597857Y-28366247D01*
X30359761Y-43794819D02*
X30026428Y-43318628D01*
X29788333Y-43794819D02*
X29788333Y-42794819D01*
X29788333Y-42794819D02*
X30169285Y-42794819D01*
X30169285Y-42794819D02*
X30264523Y-42842438D01*
X30264523Y-42842438D02*
X30312142Y-42890057D01*
X30312142Y-42890057D02*
X30359761Y-42985295D01*
X30359761Y-42985295D02*
X30359761Y-43128152D01*
X30359761Y-43128152D02*
X30312142Y-43223390D01*
X30312142Y-43223390D02*
X30264523Y-43271009D01*
X30264523Y-43271009D02*
X30169285Y-43318628D01*
X30169285Y-43318628D02*
X29788333Y-43318628D01*
X30645476Y-42794819D02*
X30978809Y-43794819D01*
X30978809Y-43794819D02*
X31312142Y-42794819D01*
X32074047Y-43128152D02*
X32074047Y-43794819D01*
X31835952Y-42747200D02*
X31597857Y-43461485D01*
X31597857Y-43461485D02*
X32216904Y-43461485D01*
X9534580Y-36166666D02*
X9582200Y-36214285D01*
X9582200Y-36214285D02*
X9629819Y-36357142D01*
X9629819Y-36357142D02*
X9629819Y-36452380D01*
X9629819Y-36452380D02*
X9582200Y-36595237D01*
X9582200Y-36595237D02*
X9486961Y-36690475D01*
X9486961Y-36690475D02*
X9391723Y-36738094D01*
X9391723Y-36738094D02*
X9201247Y-36785713D01*
X9201247Y-36785713D02*
X9058390Y-36785713D01*
X9058390Y-36785713D02*
X8867914Y-36738094D01*
X8867914Y-36738094D02*
X8772676Y-36690475D01*
X8772676Y-36690475D02*
X8677438Y-36595237D01*
X8677438Y-36595237D02*
X8629819Y-36452380D01*
X8629819Y-36452380D02*
X8629819Y-36357142D01*
X8629819Y-36357142D02*
X8677438Y-36214285D01*
X8677438Y-36214285D02*
X8725057Y-36166666D01*
X8629819Y-35833332D02*
X8629819Y-35214285D01*
X8629819Y-35214285D02*
X9010771Y-35547618D01*
X9010771Y-35547618D02*
X9010771Y-35404761D01*
X9010771Y-35404761D02*
X9058390Y-35309523D01*
X9058390Y-35309523D02*
X9106009Y-35261904D01*
X9106009Y-35261904D02*
X9201247Y-35214285D01*
X9201247Y-35214285D02*
X9439342Y-35214285D01*
X9439342Y-35214285D02*
X9534580Y-35261904D01*
X9534580Y-35261904D02*
X9582200Y-35309523D01*
X9582200Y-35309523D02*
X9629819Y-35404761D01*
X9629819Y-35404761D02*
X9629819Y-35690475D01*
X9629819Y-35690475D02*
X9582200Y-35785713D01*
X9582200Y-35785713D02*
X9534580Y-35833332D01*
X42292142Y-23024819D02*
X41958809Y-22548628D01*
X41720714Y-23024819D02*
X41720714Y-22024819D01*
X41720714Y-22024819D02*
X42101666Y-22024819D01*
X42101666Y-22024819D02*
X42196904Y-22072438D01*
X42196904Y-22072438D02*
X42244523Y-22120057D01*
X42244523Y-22120057D02*
X42292142Y-22215295D01*
X42292142Y-22215295D02*
X42292142Y-22358152D01*
X42292142Y-22358152D02*
X42244523Y-22453390D01*
X42244523Y-22453390D02*
X42196904Y-22501009D01*
X42196904Y-22501009D02*
X42101666Y-22548628D01*
X42101666Y-22548628D02*
X41720714Y-22548628D01*
X43244523Y-23024819D02*
X42673095Y-23024819D01*
X42958809Y-23024819D02*
X42958809Y-22024819D01*
X42958809Y-22024819D02*
X42863571Y-22167676D01*
X42863571Y-22167676D02*
X42768333Y-22262914D01*
X42768333Y-22262914D02*
X42673095Y-22310533D01*
X44149285Y-22024819D02*
X43673095Y-22024819D01*
X43673095Y-22024819D02*
X43625476Y-22501009D01*
X43625476Y-22501009D02*
X43673095Y-22453390D01*
X43673095Y-22453390D02*
X43768333Y-22405771D01*
X43768333Y-22405771D02*
X44006428Y-22405771D01*
X44006428Y-22405771D02*
X44101666Y-22453390D01*
X44101666Y-22453390D02*
X44149285Y-22501009D01*
X44149285Y-22501009D02*
X44196904Y-22596247D01*
X44196904Y-22596247D02*
X44196904Y-22834342D01*
X44196904Y-22834342D02*
X44149285Y-22929580D01*
X44149285Y-22929580D02*
X44101666Y-22977200D01*
X44101666Y-22977200D02*
X44006428Y-23024819D01*
X44006428Y-23024819D02*
X43768333Y-23024819D01*
X43768333Y-23024819D02*
X43673095Y-22977200D01*
X43673095Y-22977200D02*
X43625476Y-22929580D01*
X22939819Y-32166666D02*
X22463628Y-32499999D01*
X22939819Y-32738094D02*
X21939819Y-32738094D01*
X21939819Y-32738094D02*
X21939819Y-32357142D01*
X21939819Y-32357142D02*
X21987438Y-32261904D01*
X21987438Y-32261904D02*
X22035057Y-32214285D01*
X22035057Y-32214285D02*
X22130295Y-32166666D01*
X22130295Y-32166666D02*
X22273152Y-32166666D01*
X22273152Y-32166666D02*
X22368390Y-32214285D01*
X22368390Y-32214285D02*
X22416009Y-32261904D01*
X22416009Y-32261904D02*
X22463628Y-32357142D01*
X22463628Y-32357142D02*
X22463628Y-32738094D01*
X22939819Y-31690475D02*
X22939819Y-31499999D01*
X22939819Y-31499999D02*
X22892200Y-31404761D01*
X22892200Y-31404761D02*
X22844580Y-31357142D01*
X22844580Y-31357142D02*
X22701723Y-31261904D01*
X22701723Y-31261904D02*
X22511247Y-31214285D01*
X22511247Y-31214285D02*
X22130295Y-31214285D01*
X22130295Y-31214285D02*
X22035057Y-31261904D01*
X22035057Y-31261904D02*
X21987438Y-31309523D01*
X21987438Y-31309523D02*
X21939819Y-31404761D01*
X21939819Y-31404761D02*
X21939819Y-31595237D01*
X21939819Y-31595237D02*
X21987438Y-31690475D01*
X21987438Y-31690475D02*
X22035057Y-31738094D01*
X22035057Y-31738094D02*
X22130295Y-31785713D01*
X22130295Y-31785713D02*
X22368390Y-31785713D01*
X22368390Y-31785713D02*
X22463628Y-31738094D01*
X22463628Y-31738094D02*
X22511247Y-31690475D01*
X22511247Y-31690475D02*
X22558866Y-31595237D01*
X22558866Y-31595237D02*
X22558866Y-31404761D01*
X22558866Y-31404761D02*
X22511247Y-31309523D01*
X22511247Y-31309523D02*
X22463628Y-31261904D01*
X22463628Y-31261904D02*
X22368390Y-31214285D01*
X30359761Y-50794819D02*
X30026428Y-50318628D01*
X29788333Y-50794819D02*
X29788333Y-49794819D01*
X29788333Y-49794819D02*
X30169285Y-49794819D01*
X30169285Y-49794819D02*
X30264523Y-49842438D01*
X30264523Y-49842438D02*
X30312142Y-49890057D01*
X30312142Y-49890057D02*
X30359761Y-49985295D01*
X30359761Y-49985295D02*
X30359761Y-50128152D01*
X30359761Y-50128152D02*
X30312142Y-50223390D01*
X30312142Y-50223390D02*
X30264523Y-50271009D01*
X30264523Y-50271009D02*
X30169285Y-50318628D01*
X30169285Y-50318628D02*
X29788333Y-50318628D01*
X30645476Y-49794819D02*
X30978809Y-50794819D01*
X30978809Y-50794819D02*
X31312142Y-49794819D01*
X32121666Y-49794819D02*
X31645476Y-49794819D01*
X31645476Y-49794819D02*
X31597857Y-50271009D01*
X31597857Y-50271009D02*
X31645476Y-50223390D01*
X31645476Y-50223390D02*
X31740714Y-50175771D01*
X31740714Y-50175771D02*
X31978809Y-50175771D01*
X31978809Y-50175771D02*
X32074047Y-50223390D01*
X32074047Y-50223390D02*
X32121666Y-50271009D01*
X32121666Y-50271009D02*
X32169285Y-50366247D01*
X32169285Y-50366247D02*
X32169285Y-50604342D01*
X32169285Y-50604342D02*
X32121666Y-50699580D01*
X32121666Y-50699580D02*
X32074047Y-50747200D01*
X32074047Y-50747200D02*
X31978809Y-50794819D01*
X31978809Y-50794819D02*
X31740714Y-50794819D01*
X31740714Y-50794819D02*
X31645476Y-50747200D01*
X31645476Y-50747200D02*
X31597857Y-50699580D01*
X18114580Y-28166666D02*
X18162200Y-28214285D01*
X18162200Y-28214285D02*
X18209819Y-28357142D01*
X18209819Y-28357142D02*
X18209819Y-28452380D01*
X18209819Y-28452380D02*
X18162200Y-28595237D01*
X18162200Y-28595237D02*
X18066961Y-28690475D01*
X18066961Y-28690475D02*
X17971723Y-28738094D01*
X17971723Y-28738094D02*
X17781247Y-28785713D01*
X17781247Y-28785713D02*
X17638390Y-28785713D01*
X17638390Y-28785713D02*
X17447914Y-28738094D01*
X17447914Y-28738094D02*
X17352676Y-28690475D01*
X17352676Y-28690475D02*
X17257438Y-28595237D01*
X17257438Y-28595237D02*
X17209819Y-28452380D01*
X17209819Y-28452380D02*
X17209819Y-28357142D01*
X17209819Y-28357142D02*
X17257438Y-28214285D01*
X17257438Y-28214285D02*
X17305057Y-28166666D01*
X17209819Y-27261904D02*
X17209819Y-27738094D01*
X17209819Y-27738094D02*
X17686009Y-27785713D01*
X17686009Y-27785713D02*
X17638390Y-27738094D01*
X17638390Y-27738094D02*
X17590771Y-27642856D01*
X17590771Y-27642856D02*
X17590771Y-27404761D01*
X17590771Y-27404761D02*
X17638390Y-27309523D01*
X17638390Y-27309523D02*
X17686009Y-27261904D01*
X17686009Y-27261904D02*
X17781247Y-27214285D01*
X17781247Y-27214285D02*
X18019342Y-27214285D01*
X18019342Y-27214285D02*
X18114580Y-27261904D01*
X18114580Y-27261904D02*
X18162200Y-27309523D01*
X18162200Y-27309523D02*
X18209819Y-27404761D01*
X18209819Y-27404761D02*
X18209819Y-27642856D01*
X18209819Y-27642856D02*
X18162200Y-27738094D01*
X18162200Y-27738094D02*
X18114580Y-27785713D01*
X38558333Y-53024819D02*
X38225000Y-52548628D01*
X37986905Y-53024819D02*
X37986905Y-52024819D01*
X37986905Y-52024819D02*
X38367857Y-52024819D01*
X38367857Y-52024819D02*
X38463095Y-52072438D01*
X38463095Y-52072438D02*
X38510714Y-52120057D01*
X38510714Y-52120057D02*
X38558333Y-52215295D01*
X38558333Y-52215295D02*
X38558333Y-52358152D01*
X38558333Y-52358152D02*
X38510714Y-52453390D01*
X38510714Y-52453390D02*
X38463095Y-52501009D01*
X38463095Y-52501009D02*
X38367857Y-52548628D01*
X38367857Y-52548628D02*
X37986905Y-52548628D01*
X39463095Y-52024819D02*
X38986905Y-52024819D01*
X38986905Y-52024819D02*
X38939286Y-52501009D01*
X38939286Y-52501009D02*
X38986905Y-52453390D01*
X38986905Y-52453390D02*
X39082143Y-52405771D01*
X39082143Y-52405771D02*
X39320238Y-52405771D01*
X39320238Y-52405771D02*
X39415476Y-52453390D01*
X39415476Y-52453390D02*
X39463095Y-52501009D01*
X39463095Y-52501009D02*
X39510714Y-52596247D01*
X39510714Y-52596247D02*
X39510714Y-52834342D01*
X39510714Y-52834342D02*
X39463095Y-52929580D01*
X39463095Y-52929580D02*
X39415476Y-52977200D01*
X39415476Y-52977200D02*
X39320238Y-53024819D01*
X39320238Y-53024819D02*
X39082143Y-53024819D01*
X39082143Y-53024819D02*
X38986905Y-52977200D01*
X38986905Y-52977200D02*
X38939286Y-52929580D01*
X42292142Y-31024819D02*
X41958809Y-30548628D01*
X41720714Y-31024819D02*
X41720714Y-30024819D01*
X41720714Y-30024819D02*
X42101666Y-30024819D01*
X42101666Y-30024819D02*
X42196904Y-30072438D01*
X42196904Y-30072438D02*
X42244523Y-30120057D01*
X42244523Y-30120057D02*
X42292142Y-30215295D01*
X42292142Y-30215295D02*
X42292142Y-30358152D01*
X42292142Y-30358152D02*
X42244523Y-30453390D01*
X42244523Y-30453390D02*
X42196904Y-30501009D01*
X42196904Y-30501009D02*
X42101666Y-30548628D01*
X42101666Y-30548628D02*
X41720714Y-30548628D01*
X43244523Y-31024819D02*
X42673095Y-31024819D01*
X42958809Y-31024819D02*
X42958809Y-30024819D01*
X42958809Y-30024819D02*
X42863571Y-30167676D01*
X42863571Y-30167676D02*
X42768333Y-30262914D01*
X42768333Y-30262914D02*
X42673095Y-30310533D01*
X44196904Y-31024819D02*
X43625476Y-31024819D01*
X43911190Y-31024819D02*
X43911190Y-30024819D01*
X43911190Y-30024819D02*
X43815952Y-30167676D01*
X43815952Y-30167676D02*
X43720714Y-30262914D01*
X43720714Y-30262914D02*
X43625476Y-30310533D01*
X4779819Y-14761904D02*
X5589342Y-14761904D01*
X5589342Y-14761904D02*
X5684580Y-14714285D01*
X5684580Y-14714285D02*
X5732200Y-14666666D01*
X5732200Y-14666666D02*
X5779819Y-14571428D01*
X5779819Y-14571428D02*
X5779819Y-14380952D01*
X5779819Y-14380952D02*
X5732200Y-14285714D01*
X5732200Y-14285714D02*
X5684580Y-14238095D01*
X5684580Y-14238095D02*
X5589342Y-14190476D01*
X5589342Y-14190476D02*
X4779819Y-14190476D01*
X5779819Y-13190476D02*
X5779819Y-13761904D01*
X5779819Y-13476190D02*
X4779819Y-13476190D01*
X4779819Y-13476190D02*
X4922676Y-13571428D01*
X4922676Y-13571428D02*
X5017914Y-13666666D01*
X5017914Y-13666666D02*
X5065533Y-13761904D01*
X9962142Y-50024819D02*
X9628809Y-49548628D01*
X9390714Y-50024819D02*
X9390714Y-49024819D01*
X9390714Y-49024819D02*
X9771666Y-49024819D01*
X9771666Y-49024819D02*
X9866904Y-49072438D01*
X9866904Y-49072438D02*
X9914523Y-49120057D01*
X9914523Y-49120057D02*
X9962142Y-49215295D01*
X9962142Y-49215295D02*
X9962142Y-49358152D01*
X9962142Y-49358152D02*
X9914523Y-49453390D01*
X9914523Y-49453390D02*
X9866904Y-49501009D01*
X9866904Y-49501009D02*
X9771666Y-49548628D01*
X9771666Y-49548628D02*
X9390714Y-49548628D01*
X10914523Y-50024819D02*
X10343095Y-50024819D01*
X10628809Y-50024819D02*
X10628809Y-49024819D01*
X10628809Y-49024819D02*
X10533571Y-49167676D01*
X10533571Y-49167676D02*
X10438333Y-49262914D01*
X10438333Y-49262914D02*
X10343095Y-49310533D01*
X11247857Y-49024819D02*
X11914523Y-49024819D01*
X11914523Y-49024819D02*
X11485952Y-50024819D01*
X53486666Y-22454819D02*
X53486666Y-23169104D01*
X53486666Y-23169104D02*
X53439047Y-23311961D01*
X53439047Y-23311961D02*
X53343809Y-23407200D01*
X53343809Y-23407200D02*
X53200952Y-23454819D01*
X53200952Y-23454819D02*
X53105714Y-23454819D01*
X54486666Y-23454819D02*
X53915238Y-23454819D01*
X54200952Y-23454819D02*
X54200952Y-22454819D01*
X54200952Y-22454819D02*
X54105714Y-22597676D01*
X54105714Y-22597676D02*
X54010476Y-22692914D01*
X54010476Y-22692914D02*
X53915238Y-22740533D01*
X38558333Y-7024819D02*
X38225000Y-6548628D01*
X37986905Y-7024819D02*
X37986905Y-6024819D01*
X37986905Y-6024819D02*
X38367857Y-6024819D01*
X38367857Y-6024819D02*
X38463095Y-6072438D01*
X38463095Y-6072438D02*
X38510714Y-6120057D01*
X38510714Y-6120057D02*
X38558333Y-6215295D01*
X38558333Y-6215295D02*
X38558333Y-6358152D01*
X38558333Y-6358152D02*
X38510714Y-6453390D01*
X38510714Y-6453390D02*
X38463095Y-6501009D01*
X38463095Y-6501009D02*
X38367857Y-6548628D01*
X38367857Y-6548628D02*
X37986905Y-6548628D01*
X39510714Y-7024819D02*
X38939286Y-7024819D01*
X39225000Y-7024819D02*
X39225000Y-6024819D01*
X39225000Y-6024819D02*
X39129762Y-6167676D01*
X39129762Y-6167676D02*
X39034524Y-6262914D01*
X39034524Y-6262914D02*
X38939286Y-6310533D01*
X9534580Y-8166666D02*
X9582200Y-8214285D01*
X9582200Y-8214285D02*
X9629819Y-8357142D01*
X9629819Y-8357142D02*
X9629819Y-8452380D01*
X9629819Y-8452380D02*
X9582200Y-8595237D01*
X9582200Y-8595237D02*
X9486961Y-8690475D01*
X9486961Y-8690475D02*
X9391723Y-8738094D01*
X9391723Y-8738094D02*
X9201247Y-8785713D01*
X9201247Y-8785713D02*
X9058390Y-8785713D01*
X9058390Y-8785713D02*
X8867914Y-8738094D01*
X8867914Y-8738094D02*
X8772676Y-8690475D01*
X8772676Y-8690475D02*
X8677438Y-8595237D01*
X8677438Y-8595237D02*
X8629819Y-8452380D01*
X8629819Y-8452380D02*
X8629819Y-8357142D01*
X8629819Y-8357142D02*
X8677438Y-8214285D01*
X8677438Y-8214285D02*
X8725057Y-8166666D01*
X9629819Y-7214285D02*
X9629819Y-7785713D01*
X9629819Y-7499999D02*
X8629819Y-7499999D01*
X8629819Y-7499999D02*
X8772676Y-7595237D01*
X8772676Y-7595237D02*
X8867914Y-7690475D01*
X8867914Y-7690475D02*
X8915533Y-7785713D01*
X42292142Y-15024819D02*
X41958809Y-14548628D01*
X41720714Y-15024819D02*
X41720714Y-14024819D01*
X41720714Y-14024819D02*
X42101666Y-14024819D01*
X42101666Y-14024819D02*
X42196904Y-14072438D01*
X42196904Y-14072438D02*
X42244523Y-14120057D01*
X42244523Y-14120057D02*
X42292142Y-14215295D01*
X42292142Y-14215295D02*
X42292142Y-14358152D01*
X42292142Y-14358152D02*
X42244523Y-14453390D01*
X42244523Y-14453390D02*
X42196904Y-14501009D01*
X42196904Y-14501009D02*
X42101666Y-14548628D01*
X42101666Y-14548628D02*
X41720714Y-14548628D01*
X43244523Y-15024819D02*
X42673095Y-15024819D01*
X42958809Y-15024819D02*
X42958809Y-14024819D01*
X42958809Y-14024819D02*
X42863571Y-14167676D01*
X42863571Y-14167676D02*
X42768333Y-14262914D01*
X42768333Y-14262914D02*
X42673095Y-14310533D01*
X43863571Y-14024819D02*
X43958809Y-14024819D01*
X43958809Y-14024819D02*
X44054047Y-14072438D01*
X44054047Y-14072438D02*
X44101666Y-14120057D01*
X44101666Y-14120057D02*
X44149285Y-14215295D01*
X44149285Y-14215295D02*
X44196904Y-14405771D01*
X44196904Y-14405771D02*
X44196904Y-14643866D01*
X44196904Y-14643866D02*
X44149285Y-14834342D01*
X44149285Y-14834342D02*
X44101666Y-14929580D01*
X44101666Y-14929580D02*
X44054047Y-14977200D01*
X44054047Y-14977200D02*
X43958809Y-15024819D01*
X43958809Y-15024819D02*
X43863571Y-15024819D01*
X43863571Y-15024819D02*
X43768333Y-14977200D01*
X43768333Y-14977200D02*
X43720714Y-14929580D01*
X43720714Y-14929580D02*
X43673095Y-14834342D01*
X43673095Y-14834342D02*
X43625476Y-14643866D01*
X43625476Y-14643866D02*
X43625476Y-14405771D01*
X43625476Y-14405771D02*
X43673095Y-14215295D01*
X43673095Y-14215295D02*
X43720714Y-14120057D01*
X43720714Y-14120057D02*
X43768333Y-14072438D01*
X43768333Y-14072438D02*
X43863571Y-14024819D01*
X22939819Y-16166666D02*
X22463628Y-16499999D01*
X22939819Y-16738094D02*
X21939819Y-16738094D01*
X21939819Y-16738094D02*
X21939819Y-16357142D01*
X21939819Y-16357142D02*
X21987438Y-16261904D01*
X21987438Y-16261904D02*
X22035057Y-16214285D01*
X22035057Y-16214285D02*
X22130295Y-16166666D01*
X22130295Y-16166666D02*
X22273152Y-16166666D01*
X22273152Y-16166666D02*
X22368390Y-16214285D01*
X22368390Y-16214285D02*
X22416009Y-16261904D01*
X22416009Y-16261904D02*
X22463628Y-16357142D01*
X22463628Y-16357142D02*
X22463628Y-16738094D01*
X21939819Y-15833332D02*
X21939819Y-15166666D01*
X21939819Y-15166666D02*
X22939819Y-15595237D01*
X42292142Y-46024819D02*
X41958809Y-45548628D01*
X41720714Y-46024819D02*
X41720714Y-45024819D01*
X41720714Y-45024819D02*
X42101666Y-45024819D01*
X42101666Y-45024819D02*
X42196904Y-45072438D01*
X42196904Y-45072438D02*
X42244523Y-45120057D01*
X42244523Y-45120057D02*
X42292142Y-45215295D01*
X42292142Y-45215295D02*
X42292142Y-45358152D01*
X42292142Y-45358152D02*
X42244523Y-45453390D01*
X42244523Y-45453390D02*
X42196904Y-45501009D01*
X42196904Y-45501009D02*
X42101666Y-45548628D01*
X42101666Y-45548628D02*
X41720714Y-45548628D01*
X43244523Y-46024819D02*
X42673095Y-46024819D01*
X42958809Y-46024819D02*
X42958809Y-45024819D01*
X42958809Y-45024819D02*
X42863571Y-45167676D01*
X42863571Y-45167676D02*
X42768333Y-45262914D01*
X42768333Y-45262914D02*
X42673095Y-45310533D01*
X43577857Y-45024819D02*
X44196904Y-45024819D01*
X44196904Y-45024819D02*
X43863571Y-45405771D01*
X43863571Y-45405771D02*
X44006428Y-45405771D01*
X44006428Y-45405771D02*
X44101666Y-45453390D01*
X44101666Y-45453390D02*
X44149285Y-45501009D01*
X44149285Y-45501009D02*
X44196904Y-45596247D01*
X44196904Y-45596247D02*
X44196904Y-45834342D01*
X44196904Y-45834342D02*
X44149285Y-45929580D01*
X44149285Y-45929580D02*
X44101666Y-45977200D01*
X44101666Y-45977200D02*
X44006428Y-46024819D01*
X44006428Y-46024819D02*
X43720714Y-46024819D01*
X43720714Y-46024819D02*
X43625476Y-45977200D01*
X43625476Y-45977200D02*
X43577857Y-45929580D01*
X4779819Y-42761904D02*
X5589342Y-42761904D01*
X5589342Y-42761904D02*
X5684580Y-42714285D01*
X5684580Y-42714285D02*
X5732200Y-42666666D01*
X5732200Y-42666666D02*
X5779819Y-42571428D01*
X5779819Y-42571428D02*
X5779819Y-42380952D01*
X5779819Y-42380952D02*
X5732200Y-42285714D01*
X5732200Y-42285714D02*
X5684580Y-42238095D01*
X5684580Y-42238095D02*
X5589342Y-42190476D01*
X5589342Y-42190476D02*
X4779819Y-42190476D01*
X4779819Y-41809523D02*
X4779819Y-41190476D01*
X4779819Y-41190476D02*
X5160771Y-41523809D01*
X5160771Y-41523809D02*
X5160771Y-41380952D01*
X5160771Y-41380952D02*
X5208390Y-41285714D01*
X5208390Y-41285714D02*
X5256009Y-41238095D01*
X5256009Y-41238095D02*
X5351247Y-41190476D01*
X5351247Y-41190476D02*
X5589342Y-41190476D01*
X5589342Y-41190476D02*
X5684580Y-41238095D01*
X5684580Y-41238095D02*
X5732200Y-41285714D01*
X5732200Y-41285714D02*
X5779819Y-41380952D01*
X5779819Y-41380952D02*
X5779819Y-41666666D01*
X5779819Y-41666666D02*
X5732200Y-41761904D01*
X5732200Y-41761904D02*
X5684580Y-41809523D01*
D11*
%TO.C,R3*%
X38487742Y-39477500D02*
X38962258Y-39477500D01*
X38487742Y-40522500D02*
X38962258Y-40522500D01*
%TO.C,C2*%
X10095000Y-22140580D02*
X10095000Y-21859420D01*
X11115000Y-22140580D02*
X11115000Y-21859420D01*
%TO.C,RV1*%
X26070000Y-5470000D02*
X26070000Y-10540000D01*
X26070000Y-5470000D02*
X35840000Y-5470000D01*
X26070000Y-10540000D02*
X35840000Y-10540000D01*
X35840000Y-5470000D02*
X35840000Y-10540000D01*
%TO.C,R8*%
X23392500Y-24237258D02*
X23392500Y-23762742D01*
X24437500Y-24237258D02*
X24437500Y-23762742D01*
%TO.C,U2*%
X6170000Y-28000000D02*
X6170000Y-26050000D01*
X6170000Y-28000000D02*
X6170000Y-29950000D01*
X15040000Y-28000000D02*
X15040000Y-26050000D01*
X15040000Y-28000000D02*
X15040000Y-29950000D01*
X6235000Y-30700000D02*
X5905000Y-30940000D01*
X5905000Y-30460000D01*
X6235000Y-30700000D01*
G36*
X6235000Y-30700000D02*
G01*
X5905000Y-30940000D01*
X5905000Y-30460000D01*
X6235000Y-30700000D01*
G37*
%TO.C,C6*%
X3490000Y-12140580D02*
X3490000Y-11859420D01*
X4510000Y-12140580D02*
X4510000Y-11859420D01*
%TO.C,R4*%
X38487742Y-46477500D02*
X38962258Y-46477500D01*
X38487742Y-47522500D02*
X38962258Y-47522500D01*
%TO.C,U4*%
X16575000Y-14000000D02*
X16575000Y-11800000D01*
X16575000Y-14000000D02*
X16575000Y-16200000D01*
X21795000Y-14000000D02*
X21795000Y-11800000D01*
X21795000Y-14000000D02*
X21795000Y-16200000D01*
X16775000Y-16900000D02*
X16445000Y-17140000D01*
X16445000Y-16660000D01*
X16775000Y-16900000D01*
G36*
X16775000Y-16900000D02*
G01*
X16445000Y-17140000D01*
X16445000Y-16660000D01*
X16775000Y-16900000D01*
G37*
%TO.C,RV2*%
X26070000Y-21470000D02*
X26070000Y-26540000D01*
X26070000Y-21470000D02*
X35840000Y-21470000D01*
X26070000Y-26540000D02*
X35840000Y-26540000D01*
X35840000Y-21470000D02*
X35840000Y-26540000D01*
%TO.C,R14*%
X42697742Y-53477500D02*
X43172258Y-53477500D01*
X42697742Y-54522500D02*
X43172258Y-54522500D01*
%TO.C,R6*%
X23392500Y-8237258D02*
X23392500Y-7762742D01*
X24437500Y-8237258D02*
X24437500Y-7762742D01*
%TO.C,RV3*%
X26070000Y-37470000D02*
X26070000Y-42540000D01*
X26070000Y-37470000D02*
X35840000Y-37470000D01*
X26070000Y-42540000D02*
X35840000Y-42540000D01*
X35840000Y-37470000D02*
X35840000Y-42540000D01*
%TO.C,U5*%
X16575000Y-34000000D02*
X16575000Y-31800000D01*
X16575000Y-34000000D02*
X16575000Y-36200000D01*
X21795000Y-34000000D02*
X21795000Y-31800000D01*
X21795000Y-34000000D02*
X21795000Y-36200000D01*
X16775000Y-36900000D02*
X16445000Y-37140000D01*
X16445000Y-36660000D01*
X16775000Y-36900000D01*
G36*
X16775000Y-36900000D02*
G01*
X16445000Y-37140000D01*
X16445000Y-36660000D01*
X16775000Y-36900000D01*
G37*
%TO.C,R2*%
X38487742Y-23477500D02*
X38962258Y-23477500D01*
X38487742Y-24522500D02*
X38962258Y-24522500D01*
%TO.C,C4*%
X18675000Y-8140580D02*
X18675000Y-7859420D01*
X19695000Y-8140580D02*
X19695000Y-7859420D01*
%TO.C,R16*%
X42697742Y-7477500D02*
X43172258Y-7477500D01*
X42697742Y-8522500D02*
X43172258Y-8522500D01*
%TO.C,R12*%
X42697742Y-39477500D02*
X43172258Y-39477500D01*
X42697742Y-40522500D02*
X43172258Y-40522500D01*
%TO.C,RV6*%
X26070000Y-29470000D02*
X26070000Y-34540000D01*
X26070000Y-29470000D02*
X35840000Y-29470000D01*
X26070000Y-34540000D02*
X35840000Y-34540000D01*
X35840000Y-29470000D02*
X35840000Y-34540000D01*
%TO.C,RV4*%
X26070000Y-44470000D02*
X26070000Y-49540000D01*
X26070000Y-44470000D02*
X35840000Y-44470000D01*
X26070000Y-49540000D02*
X35840000Y-49540000D01*
X35840000Y-44470000D02*
X35840000Y-49540000D01*
%TO.C,C3*%
X10095000Y-36140580D02*
X10095000Y-35859420D01*
X11115000Y-36140580D02*
X11115000Y-35859420D01*
%TO.C,R15*%
X42697742Y-23477500D02*
X43172258Y-23477500D01*
X42697742Y-24522500D02*
X43172258Y-24522500D01*
%TO.C,R9*%
X23392500Y-32237258D02*
X23392500Y-31762742D01*
X24437500Y-32237258D02*
X24437500Y-31762742D01*
%TO.C,RV5*%
X26070000Y-51470000D02*
X26070000Y-56540000D01*
X26070000Y-51470000D02*
X35840000Y-51470000D01*
X26070000Y-56540000D02*
X35840000Y-56540000D01*
X35840000Y-51470000D02*
X35840000Y-56540000D01*
%TO.C,C5*%
X18675000Y-28140580D02*
X18675000Y-27859420D01*
X19695000Y-28140580D02*
X19695000Y-27859420D01*
%TO.C,R5*%
X38487742Y-53477500D02*
X38962258Y-53477500D01*
X38487742Y-54522500D02*
X38962258Y-54522500D01*
%TO.C,R11*%
X42697742Y-31477500D02*
X43172258Y-31477500D01*
X42697742Y-32522500D02*
X43172258Y-32522500D01*
%TO.C,U1*%
X6170000Y-14000000D02*
X6170000Y-12050000D01*
X6170000Y-14000000D02*
X6170000Y-15950000D01*
X15040000Y-14000000D02*
X15040000Y-12050000D01*
X15040000Y-14000000D02*
X15040000Y-15950000D01*
X6235000Y-16700000D02*
X5905000Y-16940000D01*
X5905000Y-16460000D01*
X6235000Y-16700000D01*
G36*
X6235000Y-16700000D02*
G01*
X5905000Y-16940000D01*
X5905000Y-16460000D01*
X6235000Y-16700000D01*
G37*
%TO.C,R17*%
X10367742Y-50477500D02*
X10842258Y-50477500D01*
X10367742Y-51522500D02*
X10842258Y-51522500D01*
%TO.C,J1*%
X45375000Y-27500000D02*
X45375000Y-28500000D01*
X45375000Y-28500000D02*
X45875000Y-28000000D01*
X45875000Y-28000000D02*
X45375000Y-27500000D01*
X46060000Y-24120000D02*
X46060000Y-42080000D01*
X46060000Y-42080000D02*
X61580000Y-42080000D01*
X61580000Y-24120000D02*
X46060000Y-24120000D01*
X61580000Y-24120000D02*
X61580000Y-42080000D01*
%TO.C,R1*%
X38487742Y-7477500D02*
X38962258Y-7477500D01*
X38487742Y-8522500D02*
X38962258Y-8522500D01*
%TO.C,C1*%
X10095000Y-8140580D02*
X10095000Y-7859420D01*
X11115000Y-8140580D02*
X11115000Y-7859420D01*
%TO.C,R10*%
X42697742Y-15477500D02*
X43172258Y-15477500D01*
X42697742Y-16522500D02*
X43172258Y-16522500D01*
%TO.C,R7*%
X23392500Y-16237258D02*
X23392500Y-15762742D01*
X24437500Y-16237258D02*
X24437500Y-15762742D01*
%TO.C,R13*%
X42697742Y-46477500D02*
X43172258Y-46477500D01*
X42697742Y-47522500D02*
X43172258Y-47522500D01*
%TO.C,U3*%
X6170000Y-42000000D02*
X6170000Y-40050000D01*
X6170000Y-42000000D02*
X6170000Y-43950000D01*
X15040000Y-42000000D02*
X15040000Y-40050000D01*
X15040000Y-42000000D02*
X15040000Y-43950000D01*
X6235000Y-44700000D02*
X5905000Y-44940000D01*
X5905000Y-44460000D01*
X6235000Y-44700000D01*
G36*
X6235000Y-44700000D02*
G01*
X5905000Y-44940000D01*
X5905000Y-44460000D01*
X6235000Y-44700000D01*
G37*
%TD*%
M02*
