M48
; DRILL file {KiCad 8.0.9} date 2026-09-19T11:01:35+0000
; FORMAT={-:-/ absolute / metric / decimal}
; #@! TF.CreationDate,2026-09-19T11:01:35+00:00
; #@! TF.GenerationSoftware,Kicad,Pcbnew,8.0.9
; #@! TF.FileFunction,Plated,1,2,PTH
FMAT,2
METRIC
; #@! TA.AperFunction,Plated,PTH,ViaDrill
T1C0.300
; #@! TA.AperFunction,Plated,PTH,ComponentDrill
T2C0.760
; #@! TA.AperFunction,Plated,PTH,ComponentDrill
T3C0.800
; #@! TA.AperFunction,Plated,PTH,ComponentDrill
T4C1.000
%
G90
G05
T1
X4.8Y-13.575
X5.927Y-44.475
X5.941Y-30.802
X6.244Y-9.501
X6.97Y-0.998
X7.309Y-7.511
X7.309Y-24.05
X7.434Y-12.867
X7.892Y-18.762
X8.415Y-37.981
X8.611Y-50.216
X8.649Y-27.073
X9.335Y-28.927
X9.335Y-42.21
X9.973Y-15.135
X10.165Y-18.019
X10.605Y-28.534
X10.605Y-42.929
X11.279Y-14.678
X11.287Y-29.085
X11.423Y-34.407
X11.423Y-41.062
X11.829Y-27.057
X11.999Y-42.924
X13.24Y-13.131
X13.925Y-18.2
X14.175Y-22.111
X15.061Y-26.847
X15.061Y-38.125
X15.288Y-11.525
X16.721Y-12.313
X16.976Y-20.512
X18.005Y-12.452
X18.011Y-15.553
X18.218Y-18.174
X18.235Y-28.12
X18.487Y-29.848
X19.185Y-18.191
X19.233Y-34.624
X19.389Y-12.432
X19.863Y-19.782
X20.867Y-35.552
X20.949Y-18.169
X22.838Y-14.949
X23.041Y-9.524
X24.138Y-22.111
X24.954Y-7.309
X32.052Y-36.084
X38.468Y-22.432
X40.332Y-39.205
X40.339Y-7.209
X41.123Y-16.169
X43.76Y-17.049
X43.76Y-38.935
X54.455Y-45.933
X55.725Y-54.378
T2
X49.375Y-28.0
X50.645Y-25.46
X51.915Y-28.0
X53.185Y-25.46
X54.455Y-28.0
X55.725Y-25.46
X56.995Y-28.0
X58.265Y-25.46
T3
X28.415Y-8.0
X28.415Y-24.0
X28.415Y-32.0
X28.415Y-40.0
X28.415Y-47.0
X28.415Y-54.0
X30.955Y-8.0
X30.955Y-24.0
X30.955Y-32.0
X30.955Y-40.0
X30.955Y-47.0
X30.955Y-54.0
X33.495Y-8.0
X33.495Y-24.0
X33.495Y-32.0
X33.495Y-40.0
X33.495Y-47.0
X33.495Y-54.0
T4
X8.374Y-2.232
X8.374Y-4.772
X10.914Y-2.232
X10.914Y-4.772
X13.454Y-2.232
X13.454Y-4.772
X15.994Y-2.232
X15.994Y-4.772
X18.534Y-2.232
X18.534Y-4.772
X21.074Y-2.232
X21.074Y-4.772
X23.614Y-2.232
X23.614Y-4.772
X26.154Y-2.232
X26.154Y-4.772
X28.694Y-2.232
X28.694Y-4.772
X31.234Y-2.232
X31.234Y-4.772
X33.774Y-2.232
X33.774Y-4.772
X36.314Y-2.232
X36.314Y-4.772
X38.854Y-2.232
X38.854Y-4.772
X41.394Y-2.232
X41.394Y-4.772
X43.934Y-2.232
X43.934Y-4.772
X46.474Y-2.232
X46.474Y-4.772
X49.014Y-2.232
X49.014Y-4.772
X51.554Y-2.232
X51.554Y-4.772
X54.094Y-2.232
X54.094Y-4.772
X56.634Y-2.232
X56.634Y-4.772
M30
