%TF.GenerationSoftware,KiCad,Pcbnew,8.0.9*%
%TF.CreationDate,2026-09-19T11:01:28+00:00*%
%TF.ProjectId,board_freerouted,626f6172-645f-4667-9265-65726f757465,rev?*%
%TF.SameCoordinates,Original*%
%TF.FileFunction,Soldermask,Bot*%
%TF.FilePolarity,Negative*%
%FSLAX46Y46*%
G04 Gerber Fmt 4.6, Leading zero omitted, Abs format (unit mm)*
G04 Created by KiCad (PCBNEW 8.0.9) date 2026-09-19 11:01:28*
%MOMM*%
%LPD*%
G01*
G04 APERTURE LIST*
%ADD10C,1.440000*%
%ADD11C,2.700000*%
%ADD12C,3.200000*%
%ADD13R,1.500000X1.500000*%
%ADD14C,1.500000*%
%ADD15R,1.700000X1.700000*%
%ADD16O,1.700000X1.700000*%
G04 APERTURE END LIST*
D10*
%TO.C,RV1*%
X33495000Y-8000000D03*
X30955000Y-8000000D03*
X28415000Y-8000000D03*
%TD*%
%TO.C,RV2*%
X33495000Y-24000000D03*
X30955000Y-24000000D03*
X28415000Y-24000000D03*
%TD*%
D11*
%TO.C,H2*%
X61500000Y-3500000D03*
%TD*%
%TO.C,H3*%
X3500000Y-52500000D03*
%TD*%
D10*
%TO.C,RV3*%
X33495000Y-40000000D03*
X30955000Y-40000000D03*
X28415000Y-40000000D03*
%TD*%
%TO.C,RV6*%
X33495000Y-32000000D03*
X30955000Y-32000000D03*
X28415000Y-32000000D03*
%TD*%
%TO.C,RV4*%
X33495000Y-47000000D03*
X30955000Y-47000000D03*
X28415000Y-47000000D03*
%TD*%
%TO.C,RV5*%
X33495000Y-54000000D03*
X30955000Y-54000000D03*
X28415000Y-54000000D03*
%TD*%
D11*
%TO.C,H4*%
X61500000Y-52500000D03*
%TD*%
D12*
%TO.C,J1*%
X48105000Y-34350000D03*
X59535000Y-34350000D03*
D13*
X49375000Y-28000000D03*
D14*
X50645000Y-25460000D03*
X51915000Y-28000000D03*
X53185000Y-25460000D03*
X54455000Y-28000000D03*
X55725000Y-25460000D03*
X56995000Y-28000000D03*
X58265000Y-25460000D03*
%TD*%
D11*
%TO.C,H1*%
X3500000Y-3500000D03*
%TD*%
D15*
%TO.C,J2*%
X8373600Y-4772400D03*
D16*
X8373600Y-2232400D03*
X10913600Y-4772400D03*
X10913600Y-2232400D03*
X13453600Y-4772400D03*
X13453600Y-2232400D03*
X15993600Y-4772400D03*
X15993600Y-2232400D03*
X18533600Y-4772400D03*
X18533600Y-2232400D03*
X21073600Y-4772400D03*
X21073600Y-2232400D03*
X23613600Y-4772400D03*
X23613600Y-2232400D03*
X26153600Y-4772400D03*
X26153600Y-2232400D03*
X28693600Y-4772400D03*
X28693600Y-2232400D03*
X31233600Y-4772400D03*
X31233600Y-2232400D03*
X33773600Y-4772400D03*
X33773600Y-2232400D03*
X36313600Y-4772400D03*
X36313600Y-2232400D03*
X38853600Y-4772400D03*
X38853600Y-2232400D03*
X41393600Y-4772400D03*
X41393600Y-2232400D03*
X43933600Y-4772400D03*
X43933600Y-2232400D03*
X46473600Y-4772400D03*
X46473600Y-2232400D03*
X49013600Y-4772400D03*
X49013600Y-2232400D03*
X51553600Y-4772400D03*
X51553600Y-2232400D03*
X54093600Y-4772400D03*
X54093600Y-2232400D03*
X56633600Y-4772400D03*
X56633600Y-2232400D03*
%TD*%
M02*
