%TF.GenerationSoftware,KiCad,Pcbnew,8.0.9*%
%TF.CreationDate,2026-09-19T11:01:28+00:00*%
%TF.ProjectId,board_freerouted,626f6172-645f-4667-9265-65726f757465,rev?*%
%TF.SameCoordinates,Original*%
%TF.FileFunction,Legend,Bot*%
%TF.FilePolarity,Positive*%
%FSLAX46Y46*%
G04 Gerber Fmt 4.6, Leading zero omitted, Abs format (unit mm)*
G04 Created by KiCad (PCBNEW 8.0.9) date 2026-09-19 11:01:28*
%MOMM*%
%LPD*%
G01*
G04 APERTURE LIST*
%ADD10C,0.150000*%
%ADD11C,0.120000*%
G04 APERTURE END LIST*
D10*
X5058419Y-3169066D02*
X5772704Y-3169066D01*
X5772704Y-3169066D02*
X5915561Y-3121447D01*
X5915561Y-3121447D02*
X6010800Y-3026209D01*
X6010800Y-3026209D02*
X6058419Y-2883352D01*
X6058419Y-2883352D02*
X6058419Y-2788114D01*
X5153657Y-3597638D02*
X5106038Y-3645257D01*
X5106038Y-3645257D02*
X5058419Y-3740495D01*
X5058419Y-3740495D02*
X5058419Y-3978590D01*
X5058419Y-3978590D02*
X5106038Y-4073828D01*
X5106038Y-4073828D02*
X5153657Y-4121447D01*
X5153657Y-4121447D02*
X5248895Y-4169066D01*
X5248895Y-4169066D02*
X5344133Y-4169066D01*
X5344133Y-4169066D02*
X5486990Y-4121447D01*
X5486990Y-4121447D02*
X6058419Y-3550019D01*
X6058419Y-3550019D02*
X6058419Y-4169066D01*
D11*
%TO.C,J2*%
X7043600Y-3502400D02*
X7043600Y-902400D01*
X7043600Y-6102400D02*
X7043600Y-4772400D01*
X8373600Y-6102400D02*
X7043600Y-6102400D01*
X9643600Y-3502400D02*
X7043600Y-3502400D01*
X9643600Y-6102400D02*
X9643600Y-3502400D01*
X57963600Y-902400D02*
X7043600Y-902400D01*
X57963600Y-6102400D02*
X9643600Y-6102400D01*
X57963600Y-6102400D02*
X57963600Y-902400D01*
%TD*%
M02*
