%TF.GenerationSoftware,KiCad,Pcbnew,8.0.9*%
%TF.CreationDate,2026-09-19T11:01:28+00:00*%
%TF.ProjectId,board_freerouted,626f6172-645f-4667-9265-65726f757465,rev?*%
%TF.SameCoordinates,Original*%
%TF.FileFunction,Soldermask,Top*%
%TF.FilePolarity,Negative*%
%FSLAX46Y46*%
G04 Gerber Fmt 4.6, Leading zero omitted, Abs format (unit mm)*
G04 Created by KiCad (PCBNEW 8.0.9) date 2026-09-19 11:01:28*
%MOMM*%
%LPD*%
G01*
G04 APERTURE LIST*
G04 Aperture macros list*
%AMRoundRect*
0 Rectangle with rounded corners*
0 $1 Rounding radius*
0 $2 $3 $4 $5 $6 $7 $8 $9 X,Y pos of 4 corners*
0 Add a 4 corners polygon primitive as box body*
4,1,4,$2,$3,$4,$5,$6,$7,$8,$9,$2,$3,0*
0 Add four circle primitives for the rounded corners*
1,1,$1+$1,$2,$3*
1,1,$1+$1,$4,$5*
1,1,$1+$1,$6,$7*
1,1,$1+$1,$8,$9*
0 Add four rect primitives between the rounded corners*
20,1,$1+$1,$2,$3,$4,$5,0*
20,1,$1+$1,$4,$5,$6,$7,0*
20,1,$1+$1,$6,$7,$8,$9,0*
20,1,$1+$1,$8,$9,$2,$3,0*%
G04 Aperture macros list end*
%ADD10RoundRect,0.200000X-0.200000X-0.275000X0.200000X-0.275000X0.200000X0.275000X-0.200000X0.275000X0*%
%ADD11RoundRect,0.225000X0.250000X-0.225000X0.250000X0.225000X-0.250000X0.225000X-0.250000X-0.225000X0*%
%ADD12C,1.440000*%
%ADD13RoundRect,0.200000X0.275000X-0.200000X0.275000X0.200000X-0.275000X0.200000X-0.275000X-0.200000X0*%
%ADD14RoundRect,0.150000X0.150000X-0.825000X0.150000X0.825000X-0.150000X0.825000X-0.150000X-0.825000X0*%
%ADD15RoundRect,0.100000X0.100000X-0.637500X0.100000X0.637500X-0.100000X0.637500X-0.100000X-0.637500X0*%
%ADD16C,2.700000*%
%ADD17C,3.200000*%
%ADD18R,1.500000X1.500000*%
%ADD19C,1.500000*%
%ADD20R,1.700000X1.700000*%
%ADD21O,1.700000X1.700000*%
G04 APERTURE END LIST*
D10*
%TO.C,R3*%
X37900000Y-40000000D03*
X39550000Y-40000000D03*
%TD*%
D11*
%TO.C,C2*%
X10605000Y-22775000D03*
X10605000Y-21225000D03*
%TD*%
D12*
%TO.C,RV1*%
X33495000Y-8000000D03*
X30955000Y-8000000D03*
X28415000Y-8000000D03*
%TD*%
D13*
%TO.C,R8*%
X23915000Y-24825000D03*
X23915000Y-23175000D03*
%TD*%
D14*
%TO.C,U2*%
X6795000Y-30475000D03*
X8065000Y-30475000D03*
X9335000Y-30475000D03*
X10605000Y-30475000D03*
X11875000Y-30475000D03*
X13145000Y-30475000D03*
X14415000Y-30475000D03*
X14415000Y-25525000D03*
X13145000Y-25525000D03*
X11875000Y-25525000D03*
X10605000Y-25525000D03*
X9335000Y-25525000D03*
X8065000Y-25525000D03*
X6795000Y-25525000D03*
%TD*%
D11*
%TO.C,C6*%
X4000000Y-12775000D03*
X4000000Y-11225000D03*
%TD*%
D10*
%TO.C,R4*%
X37900000Y-47000000D03*
X39550000Y-47000000D03*
%TD*%
D15*
%TO.C,U4*%
X17235000Y-16862500D03*
X17885000Y-16862500D03*
X18535000Y-16862500D03*
X19185000Y-16862500D03*
X19835000Y-16862500D03*
X20485000Y-16862500D03*
X21135000Y-16862500D03*
X21135000Y-11137500D03*
X20485000Y-11137500D03*
X19835000Y-11137500D03*
X19185000Y-11137500D03*
X18535000Y-11137500D03*
X17885000Y-11137500D03*
X17235000Y-11137500D03*
%TD*%
D12*
%TO.C,RV2*%
X33495000Y-24000000D03*
X30955000Y-24000000D03*
X28415000Y-24000000D03*
%TD*%
D10*
%TO.C,R14*%
X42110000Y-54000000D03*
X43760000Y-54000000D03*
%TD*%
D16*
%TO.C,H2*%
X61500000Y-3500000D03*
%TD*%
D13*
%TO.C,R6*%
X23915000Y-8825000D03*
X23915000Y-7175000D03*
%TD*%
D16*
%TO.C,H3*%
X3500000Y-52500000D03*
%TD*%
D12*
%TO.C,RV3*%
X33495000Y-40000000D03*
X30955000Y-40000000D03*
X28415000Y-40000000D03*
%TD*%
D15*
%TO.C,U5*%
X17235000Y-36862500D03*
X17885000Y-36862500D03*
X18535000Y-36862500D03*
X19185000Y-36862500D03*
X19835000Y-36862500D03*
X20485000Y-36862500D03*
X21135000Y-36862500D03*
X21135000Y-31137500D03*
X20485000Y-31137500D03*
X19835000Y-31137500D03*
X19185000Y-31137500D03*
X18535000Y-31137500D03*
X17885000Y-31137500D03*
X17235000Y-31137500D03*
%TD*%
D10*
%TO.C,R2*%
X37900000Y-24000000D03*
X39550000Y-24000000D03*
%TD*%
D11*
%TO.C,C4*%
X19185000Y-8775000D03*
X19185000Y-7225000D03*
%TD*%
D10*
%TO.C,R16*%
X42110000Y-8000000D03*
X43760000Y-8000000D03*
%TD*%
%TO.C,R12*%
X42110000Y-40000000D03*
X43760000Y-40000000D03*
%TD*%
D12*
%TO.C,RV6*%
X33495000Y-32000000D03*
X30955000Y-32000000D03*
X28415000Y-32000000D03*
%TD*%
%TO.C,RV4*%
X33495000Y-47000000D03*
X30955000Y-47000000D03*
X28415000Y-47000000D03*
%TD*%
D11*
%TO.C,C3*%
X10605000Y-36775000D03*
X10605000Y-35225000D03*
%TD*%
D10*
%TO.C,R15*%
X42110000Y-24000000D03*
X43760000Y-24000000D03*
%TD*%
D13*
%TO.C,R9*%
X23915000Y-32825000D03*
X23915000Y-31175000D03*
%TD*%
D12*
%TO.C,RV5*%
X33495000Y-54000000D03*
X30955000Y-54000000D03*
X28415000Y-54000000D03*
%TD*%
D11*
%TO.C,C5*%
X19185000Y-28775000D03*
X19185000Y-27225000D03*
%TD*%
D10*
%TO.C,R5*%
X37900000Y-54000000D03*
X39550000Y-54000000D03*
%TD*%
%TO.C,R11*%
X42110000Y-32000000D03*
X43760000Y-32000000D03*
%TD*%
D14*
%TO.C,U1*%
X6795000Y-16475000D03*
X8065000Y-16475000D03*
X9335000Y-16475000D03*
X10605000Y-16475000D03*
X11875000Y-16475000D03*
X13145000Y-16475000D03*
X14415000Y-16475000D03*
X14415000Y-11525000D03*
X13145000Y-11525000D03*
X11875000Y-11525000D03*
X10605000Y-11525000D03*
X9335000Y-11525000D03*
X8065000Y-11525000D03*
X6795000Y-11525000D03*
%TD*%
D10*
%TO.C,R17*%
X9780000Y-51000000D03*
X11430000Y-51000000D03*
%TD*%
D16*
%TO.C,H4*%
X61500000Y-52500000D03*
%TD*%
D17*
%TO.C,J1*%
X48105000Y-34350000D03*
X59535000Y-34350000D03*
D18*
X49375000Y-28000000D03*
D19*
X50645000Y-25460000D03*
X51915000Y-28000000D03*
X53185000Y-25460000D03*
X54455000Y-28000000D03*
X55725000Y-25460000D03*
X56995000Y-28000000D03*
X58265000Y-25460000D03*
%TD*%
D16*
%TO.C,H1*%
X3500000Y-3500000D03*
%TD*%
D10*
%TO.C,R1*%
X37900000Y-8000000D03*
X39550000Y-8000000D03*
%TD*%
D11*
%TO.C,C1*%
X10605000Y-8775000D03*
X10605000Y-7225000D03*
%TD*%
D10*
%TO.C,R10*%
X42110000Y-16000000D03*
X43760000Y-16000000D03*
%TD*%
D13*
%TO.C,R7*%
X23915000Y-16825000D03*
X23915000Y-15175000D03*
%TD*%
D10*
%TO.C,R13*%
X42110000Y-47000000D03*
X43760000Y-47000000D03*
%TD*%
D14*
%TO.C,U3*%
X6795000Y-44475000D03*
X8065000Y-44475000D03*
X9335000Y-44475000D03*
X10605000Y-44475000D03*
X11875000Y-44475000D03*
X13145000Y-44475000D03*
X14415000Y-44475000D03*
X14415000Y-39525000D03*
X13145000Y-39525000D03*
X11875000Y-39525000D03*
X10605000Y-39525000D03*
X9335000Y-39525000D03*
X8065000Y-39525000D03*
X6795000Y-39525000D03*
%TD*%
D20*
%TO.C,J2*%
X8373600Y-4772400D03*
D21*
X8373600Y-2232400D03*
X10913600Y-4772400D03*
X10913600Y-2232400D03*
X13453600Y-4772400D03*
X13453600Y-2232400D03*
X15993600Y-4772400D03*
X15993600Y-2232400D03*
X18533600Y-4772400D03*
X18533600Y-2232400D03*
X21073600Y-4772400D03*
X21073600Y-2232400D03*
X23613600Y-4772400D03*
X23613600Y-2232400D03*
X26153600Y-4772400D03*
X26153600Y-2232400D03*
X28693600Y-4772400D03*
X28693600Y-2232400D03*
X31233600Y-4772400D03*
X31233600Y-2232400D03*
X33773600Y-4772400D03*
X33773600Y-2232400D03*
X36313600Y-4772400D03*
X36313600Y-2232400D03*
X38853600Y-4772400D03*
X38853600Y-2232400D03*
X41393600Y-4772400D03*
X41393600Y-2232400D03*
X43933600Y-4772400D03*
X43933600Y-2232400D03*
X46473600Y-4772400D03*
X46473600Y-2232400D03*
X49013600Y-4772400D03*
X49013600Y-2232400D03*
X51553600Y-4772400D03*
X51553600Y-2232400D03*
X54093600Y-4772400D03*
X54093600Y-2232400D03*
X56633600Y-4772400D03*
X56633600Y-2232400D03*
%TD*%
M02*
